<mxfile host="65bd71144e">
    <diagram id="VtQjrXiOdUIVo-FDSwQp" name="Page-1">
        <mxGraphModel dx="832" dy="471" grid="1" gridSize="10" guides="1" tooltips="1" connect="1" arrows="1" fold="1" page="1" pageScale="1" pageWidth="850" pageHeight="1100" math="0" shadow="0">
            <root>
                <mxCell id="0"/>
                <mxCell id="1" parent="0"/>
                <mxCell id="2" value="" style="swimlane;childLayout=stackLayout;resizeParent=1;resizeParentMax=0;startSize=20;html=1;" parent="1" vertex="1">
                    <mxGeometry x="160.00000000000045" y="70" width="480" height="280" as="geometry"/>
                </mxCell>
                <mxCell id="3" value="Controller" style="swimlane;startSize=20;html=1;" parent="2" vertex="1">
                    <mxGeometry y="20" width="120" height="260" as="geometry"/>
                </mxCell>
                <mxCell id="4" value="" style="edgeStyle=none;html=1;" parent="3" source="5" target="7" edge="1">
                    <mxGeometry relative="1" as="geometry"/>
                </mxCell>
                <mxCell id="5" value="Initialize" style="rounded=0;whiteSpace=wrap;html=1;" parent="3" vertex="1">
                    <mxGeometry x="10" y="40" width="100" height="40" as="geometry"/>
                </mxCell>
                <mxCell id="6" value="" style="edgeStyle=orthogonalEdgeStyle;html=1;fontSize=15;" parent="3" source="7" target="8" edge="1">
                    <mxGeometry relative="1" as="geometry"/>
                </mxCell>
                <mxCell id="7" value="RemoveItem" style="rounded=0;whiteSpace=wrap;html=1;" parent="3" vertex="1">
                    <mxGeometry x="9.999999999999545" y="120" width="100" height="40" as="geometry"/>
                </mxCell>
                <mxCell id="8" value="ShowItems" style="rounded=0;whiteSpace=wrap;html=1;" parent="3" vertex="1">
                    <mxGeometry x="9.999999999999545" y="200" width="100" height="40" as="geometry"/>
                </mxCell>
                <mxCell id="9" value="Business Logic" style="swimlane;startSize=20;html=1;" parent="2" vertex="1">
                    <mxGeometry x="120" y="20" width="240" height="260" as="geometry"/>
                </mxCell>
                <mxCell id="10" value="RemoveItem" style="rounded=0;whiteSpace=wrap;html=1;" parent="9" vertex="1">
                    <mxGeometry x="9.999999999999545" y="120" width="100" height="40" as="geometry"/>
                </mxCell>
                <mxCell id="31" value="GetItems" style="rounded=0;whiteSpace=wrap;html=1;" parent="9" vertex="1">
                    <mxGeometry x="9.999999999999545" y="40" width="100" height="40" as="geometry"/>
                </mxCell>
                <mxCell id="11" value="Model" style="swimlane;startSize=20;html=1;" parent="2" vertex="1">
                    <mxGeometry x="360" y="20" width="120" height="260" as="geometry"/>
                </mxCell>
                <mxCell id="12" value="DeleteItem" style="rounded=0;whiteSpace=wrap;html=1;" parent="11" vertex="1">
                    <mxGeometry x="9.999999999999545" y="120" width="100" height="40" as="geometry"/>
                </mxCell>
                <mxCell id="32" value="GetItems" style="rounded=0;whiteSpace=wrap;html=1;" parent="11" vertex="1">
                    <mxGeometry x="9.999999999999545" y="40" width="100" height="40" as="geometry"/>
                </mxCell>
                <mxCell id="13" value="" style="edgeStyle=none;html=1;" parent="2" source="7" target="10" edge="1">
                    <mxGeometry relative="1" as="geometry"/>
                </mxCell>
                <mxCell id="14" style="edgeStyle=none;html=1;" parent="2" source="10" target="12" edge="1">
                    <mxGeometry relative="1" as="geometry"/>
                </mxCell>
                <mxCell id="33" value="" style="edgeStyle=none;html=1;" parent="2" source="31" target="32" edge="1">
                    <mxGeometry relative="1" as="geometry"/>
                </mxCell>
                <mxCell id="34" value="" style="edgeStyle=none;html=1;" parent="2" source="5" target="31" edge="1">
                    <mxGeometry relative="1" as="geometry"/>
                </mxCell>
                <mxCell id="15" style="edgeStyle=none;html=1;" parent="1" source="16" target="5" edge="1">
                    <mxGeometry relative="1" as="geometry"/>
                </mxCell>
                <mxCell id="16" value="Admin" style="shape=umlActor;verticalLabelPosition=bottom;verticalAlign=top;html=1;outlineConnect=0;" parent="1" vertex="1">
                    <mxGeometry x="60" y="120" width="30" height="60" as="geometry"/>
                </mxCell>
                <mxCell id="17" value="Item" style="swimlane;fontStyle=0;childLayout=stackLayout;horizontal=1;startSize=30;horizontalStack=0;resizeParent=1;resizeParentMax=0;resizeLast=0;collapsible=1;marginBottom=0;whiteSpace=wrap;html=1;" parent="1" vertex="1">
                    <mxGeometry x="520" y="370" width="140" height="330" as="geometry"/>
                </mxCell>
                <mxCell id="18" value="Id" style="text;strokeColor=none;fillColor=none;align=left;verticalAlign=middle;spacingLeft=4;spacingRight=4;overflow=hidden;points=[[0,0.5],[1,0.5]];portConstraint=eastwest;rotatable=0;whiteSpace=wrap;html=1;fontStyle=1;fontSize=15;" parent="17" vertex="1">
                    <mxGeometry y="30" width="140" height="30" as="geometry"/>
                </mxCell>
                <mxCell id="19" value="Title" style="text;strokeColor=none;fillColor=none;align=left;verticalAlign=middle;spacingLeft=4;spacingRight=4;overflow=hidden;points=[[0,0.5],[1,0.5]];portConstraint=eastwest;rotatable=0;whiteSpace=wrap;html=1;" parent="17" vertex="1">
                    <mxGeometry y="60" width="140" height="30" as="geometry"/>
                </mxCell>
                <mxCell id="20" value="Artist" style="text;strokeColor=none;fillColor=none;align=left;verticalAlign=middle;spacingLeft=4;spacingRight=4;overflow=hidden;points=[[0,0.5],[1,0.5]];portConstraint=eastwest;rotatable=0;whiteSpace=wrap;html=1;" parent="17" vertex="1">
                    <mxGeometry y="90" width="140" height="30" as="geometry"/>
                </mxCell>
                <mxCell id="21" value="Description" style="text;strokeColor=none;fillColor=none;align=left;verticalAlign=middle;spacingLeft=4;spacingRight=4;overflow=hidden;points=[[0,0.5],[1,0.5]];portConstraint=eastwest;rotatable=0;whiteSpace=wrap;html=1;" parent="17" vertex="1">
                    <mxGeometry y="120" width="140" height="30" as="geometry"/>
                </mxCell>
                <mxCell id="22" value="Year" style="text;strokeColor=none;fillColor=none;align=left;verticalAlign=middle;spacingLeft=4;spacingRight=4;overflow=hidden;points=[[0,0.5],[1,0.5]];portConstraint=eastwest;rotatable=0;whiteSpace=wrap;html=1;" parent="17" vertex="1">
                    <mxGeometry y="150" width="140" height="30" as="geometry"/>
                </mxCell>
                <mxCell id="23" value="Genre" style="text;strokeColor=none;fillColor=none;align=left;verticalAlign=middle;spacingLeft=4;spacingRight=4;overflow=hidden;points=[[0,0.5],[1,0.5]];portConstraint=eastwest;rotatable=0;whiteSpace=wrap;html=1;" parent="17" vertex="1">
                    <mxGeometry y="180" width="140" height="30" as="geometry"/>
                </mxCell>
                <mxCell id="24" value="Price" style="text;strokeColor=none;fillColor=none;align=left;verticalAlign=middle;spacingLeft=4;spacingRight=4;overflow=hidden;points=[[0,0.5],[1,0.5]];portConstraint=eastwest;rotatable=0;whiteSpace=wrap;html=1;" parent="17" vertex="1">
                    <mxGeometry y="210" width="140" height="30" as="geometry"/>
                </mxCell>
                <mxCell id="30" value="Amount" style="text;strokeColor=none;fillColor=none;align=left;verticalAlign=middle;spacingLeft=4;spacingRight=4;overflow=hidden;points=[[0,0.5],[1,0.5]];portConstraint=eastwest;rotatable=0;whiteSpace=wrap;html=1;" parent="17" vertex="1">
                    <mxGeometry y="240" width="140" height="30" as="geometry"/>
                </mxCell>
                <mxCell id="25" value="Status" style="text;strokeColor=none;fillColor=none;align=left;verticalAlign=middle;spacingLeft=4;spacingRight=4;overflow=hidden;points=[[0,0.5],[1,0.5]];portConstraint=eastwest;rotatable=0;whiteSpace=wrap;html=1;" parent="17" vertex="1">
                    <mxGeometry y="270" width="140" height="30" as="geometry"/>
                </mxCell>
                <mxCell id="26" value="NewInCollection" style="text;strokeColor=none;fillColor=none;align=left;verticalAlign=middle;spacingLeft=4;spacingRight=4;overflow=hidden;points=[[0,0.5],[1,0.5]];portConstraint=eastwest;rotatable=0;whiteSpace=wrap;html=1;" parent="17" vertex="1">
                    <mxGeometry y="300" width="140" height="30" as="geometry"/>
                </mxCell>
                <mxCell id="27" style="edgeStyle=orthogonalEdgeStyle;html=1;" parent="1" source="21" target="10" edge="1">
                    <mxGeometry relative="1" as="geometry"/>
                </mxCell>
                <mxCell id="28" value="" style="ellipse;fillColor=strokeColor;fontSize=15;" parent="1" vertex="1">
                    <mxGeometry x="60" y="295" width="30" height="30" as="geometry"/>
                </mxCell>
                <mxCell id="29" style="edgeStyle=orthogonalEdgeStyle;html=1;fontSize=15;" parent="1" source="8" target="28" edge="1">
                    <mxGeometry relative="1" as="geometry"/>
                </mxCell>
                <mxCell id="35" style="edgeStyle=none;html=1;dashed=1;entryX=0.25;entryY=0;entryDx=0;entryDy=0;" edge="1" parent="1" source="36" target="5">
                    <mxGeometry relative="1" as="geometry">
                        <mxPoint x="174.16666666666697" y="130" as="targetPoint"/>
                    </mxGeometry>
                </mxCell>
                <mxCell id="36" value="Go to home page" style="shape=note;strokeWidth=2;fontSize=14;size=20;whiteSpace=wrap;html=1;fillColor=#fff2cc;strokeColor=#d6b656;fontColor=#666600;" vertex="1" parent="1">
                    <mxGeometry x="20" y="10" width="110.00000000000001" height="80" as="geometry"/>
                </mxCell>
            </root>
        </mxGraphModel>
    </diagram>
</mxfile>